<?xml version="1.0" encoding="utf-8"?>
<svg version="1.1" xmlns:xlink="http://www.w3.org/1999/xlink" width="397px" height="790px" xmlns="http://www.w3.org/2000/svg">
  <defs>
    <mask fill="white" id="clip3">
      <path d="M 0 790  L 0.00632418368195431 758.013826018063  L 5 748.389290882779  L 5 62.1374819102749  L 0 52.4413892908828  L 0 17.1693198263387  L 17.5615050651229 0  L 379.154013015184 0  L 397 17.7136659436009  L 397 790  L 0 790  Z " fill-rule="evenodd" />
    </mask>
  </defs>
  <g transform="matrix(1 0 0 1 -1512 -115 )">
    <path d="M 0 790  L 0.00632418368195431 758.013826018063  L 5 748.389290882779  L 5 62.1374819102749  L 0 52.4413892908828  L 0 17.1693198263387  L 17.5615050651229 0  L 379.154013015184 0  L 397 17.7136659436009  L 397 790  L 0 790  Z " fill-rule="nonzero" fill="#ffffff" stroke="none" fill-opacity="0" transform="matrix(1 0 0 1 1512 115 )" />
    <path d="M 0 790  L 0.00632418368195431 758.013826018063  L 5 748.389290882779  L 5 62.1374819102749  L 0 52.4413892908828  L 0 17.1693198263387  L 17.5615050651229 0  L 379.154013015184 0  L 397 17.7136659436009  L 397 790  L 0 790  Z " stroke-width="2" stroke="#00ccff" fill="none" transform="matrix(1 0 0 1 1512 115 )" mask="url(#clip3)" />
  </g>
</svg>