<?xml version="1.0" encoding="utf-8"?>
<svg version="1.1" xmlns:xlink="http://www.w3.org/1999/xlink" width="113px" height="40px" xmlns="http://www.w3.org/2000/svg">
  <defs>
    <mask fill="white" id="clip6">
      <path d="M 0 40  L 0 9.96287128712879  L 9.37315731573157 0  L 113 0  L 113 30  L 103.250980392157 40  L 0 40  Z " fill-rule="evenodd" />
    </mask>
  </defs>
  <g transform="matrix(1 0 0 1 -495 -435 )">
    <path d="M 0 40  L 0 9.96287128712879  L 9.37315731573157 0  L 113 0  L 113 30  L 103.250980392157 40  L 0 40  Z " fill-rule="nonzero" fill="#00ccff" stroke="none" fill-opacity="0.2" transform="matrix(1 0 0 1 495 435 )" />
    <path d="M 0 40  L 0 9.96287128712879  L 9.37315731573157 0  L 113 0  L 113 30  L 103.250980392157 40  L 0 40  Z " stroke-width="2" stroke="#00ccff" fill="none" transform="matrix(1 0 0 1 495 435 )" mask="url(#clip6)" />
  </g>
</svg>