<?xml version="1.0" encoding="utf-8"?>
<svg version="1.1" xmlns:xlink="http://www.w3.org/1999/xlink" width="8px" height="14px" xmlns="http://www.w3.org/2000/svg">
  <g transform="matrix(1 0 0 1 -20 -69 )">
    <path d="M 3 8.3828125  C 3.32291666666667 8.4609375  3.65625 8.5  4 8.5  C 4.34375 8.5  4.67708333333333 8.4609375  5 8.3828125  L 5 13.5  C 5 13.6354166666667  4.95052083333333 13.7526041666667  4.8515625 13.8515625  C 4.75260416666667 13.9505208333333  4.63541666666667 14  4.5 14  L 3.5 14  C 3.36458333333333 14  3.24739583333333 13.9505208333333  3.1484375 13.8515625  C 3.04947916666667 13.7526041666667  3 13.6354166666667  3 13.5  L 3 8.3828125  Z M 1.171875 1.171875  C 1.953125 0.390625  2.89583333333333 0  4 0  C 5.10416666666667 0  6.046875 0.390625  6.828125 1.171875  C 7.609375 1.953125  8 2.89583333333333  8 4  C 8 5.10416666666667  7.609375 6.046875  6.828125 6.828125  C 6.046875 7.609375  5.10416666666667 8  4 8  C 2.89583333333333 8  1.953125 7.609375  1.171875 6.828125  C 0.390625 6.046875  0 5.10416666666667  0 4  C 0 2.89583333333333  0.390625 1.953125  1.171875 1.171875  Z M 2.41015625 2.41015625  C 2.85026041666667 1.97005208333333  3.38020833333333 1.75  4 1.75  C 4.07291666666667 1.75  4.1328125 1.7265625  4.1796875 1.6796875  C 4.2265625 1.6328125  4.25 1.57291666666667  4.25 1.5  C 4.25 1.42708333333333  4.2265625 1.3671875  4.1796875 1.3203125  C 4.1328125 1.2734375  4.07291666666667 1.25  4 1.25  C 3.23958333333333 1.25  2.59114583333333 1.51822916666667  2.0546875 2.0546875  C 1.51822916666667 2.59114583333333  1.25 3.23958333333333  1.25 4  C 1.25 4.07291666666667  1.2734375 4.1328125  1.3203125 4.1796875  C 1.3671875 4.2265625  1.42708333333333 4.25  1.5 4.25  C 1.57291666666667 4.25  1.6328125 4.2265625  1.6796875 4.1796875  C 1.7265625 4.1328125  1.75 4.07291666666667  1.75 4  C 1.75 3.38020833333333  1.97005208333333 2.85026041666667  2.41015625 2.41015625  Z " fill-rule="nonzero" fill="#6c7293" stroke="none" transform="matrix(1 0 0 1 20 69 )" />
  </g>
</svg>